<svg width="20" height="20" viewBox="0 0 20 20" fill="none" xmlns="http://www.w3.org/2000/svg">
<path d="M11.175 19.4596H16.2497L16.7198 15.393L19.7982 12.9729C19.9325 12.2618 19.9999 11.537 19.9999 10.8111C19.9999 4.84343 15.52 0.00026355 10.0003 0.00026355C4.48026 0.00026355 0 4.84343 0 10.8111C0 11.537 0.0674598 12.2618 0.201692 12.9729L3.2794 15.393L3.75024 19.4596H8.82423L9.11747 19.6899C9.37423 19.8916 9.68297 19.9999 10.0003 19.9999C10.317 19.9999 10.626 19.8916 10.8821 19.6899L11.175 19.4596Z" fill="#FBCE07"/>
<path fill-rule="evenodd" clip-rule="evenodd" d="M11.0164 17.5676H14.7047L15.0778 14.3453L18.1156 11.9565C18.2047 11.5821 18.2498 11.1974 18.2498 10.8112C18.2498 10.1652 18.1245 9.52744 17.8808 8.93767L12.5016 14.8175L17.7311 7.83851C17.5253 6.93321 17.0703 6.11721 16.4253 5.49842L11.7375 14.2456L15.8907 4.6694C15.3538 3.89581 14.6038 3.32614 13.7499 3.04074L10.8839 13.8977L12.9779 2.59312C12.3412 2.20428 11.6215 2.00037 10.8901 2.00037C10.7352 2.00037 10.5803 2.0093 10.4268 2.02754L10.0004 13.7842L9.57253 2.02754C9.41971 2.0093 9.26483 2.00037 9.1096 2.00037C8.37855 2.00037 7.65921 2.20428 7.02212 2.59312L9.11683 13.8977L6.24977 3.04074C5.3955 3.32614 4.64621 3.89581 4.10893 4.6694L8.26222 14.2456L3.57476 5.49842C2.9301 6.11721 2.4744 6.93321 2.26857 7.83851L7.49847 14.8175L2.11885 8.93767C1.87586 9.52744 1.75023 10.1652 1.75023 10.8112C1.75023 11.1974 1.79463 11.5821 1.88446 11.9565L4.92224 14.3453L5.295 17.5676H8.98363L9.52917 17.997C9.6665 18.1046 9.83102 18.1619 10.0004 18.1619C10.169 18.1619 10.3335 18.1046 10.4705 17.997L11.0164 17.5676ZM11.1754 19.4597H16.2497L16.7199 15.3931L19.7983 12.973C19.9322 12.262 20 11.5367 20 10.8112C20 4.84316 15.5201 7.45058e-08 10.0004 7.45058e-08C4.47996 7.45058e-08 4.57764e-05 4.84316 4.57764e-05 10.8112C4.57764e-05 11.5367 0.0675061 12.262 0.202083 12.973L3.27979 15.3931L3.75029 19.4597H8.82427L9.11786 19.6897C9.37428 19.8913 9.68302 20 10.0004 20C10.317 20 10.6264 19.8913 10.8822 19.6897L11.1754 19.4597Z" fill="#DD1D21"/>
</svg>
